<svg id="Layer_1" xmlns="http://www.w3.org/2000/svg" viewBox="-173 117 253 367"><style>.st0{fill:url(#SVGID_1_)}.st1{fill:url(#SVGID_2_)}.st2{display:none;fill:url(#Rectangle-55_1_)}</style><title>graph-gradient</title><g id="Designs"><g id="Desktop-HD-Copy-19" transform="translate(-137 -3922)"><g id="Group-12" transform="translate(137 3345)"><g id="Group-17" transform="translate(0 577)"><g id="graph-gradient"><g id="Group" transform="translate(12 69)"><g id="Shape"><radialGradient id="SVGID_1_" cx="-63" cy="235.195" r="113.864" gradientTransform="matrix(1 0 0 1.6 0 -141.117)" gradientUnits="userSpaceOnUse"><stop offset="0" stop-color="#eac2d2"/><stop offset="1" stop-color="#1a2662"/><stop offset="1" stop-color="#1a2662"/></radialGradient><path class="st0" d="M34.9 135.1h-95.3v-14.9c0-1.5-1.1-2.7-2.5-2.7s-2.5 1.2-2.5 2.7v14.9h-95.3c-6.7 0-12.1 5.8-12.1 12.9 0 6.8 5 12.3 11.2 12.8.3.1.6.2.9.2h6.6v119.2c0 1.5 1.1 2.7 2.5 2.7h86.2v26.9l-61.6 38c-1.2.7-1.6 2.4-.9 3.7.5.9 1.3 1.3 2.2 1.3.4 0 .9-.1 1.3-.4l59.1-36.4v34.1c0 1.5 1.1 2.7 2.5 2.7s2.5-1.2 2.5-2.7V316l59.1 36.4c.4.2.8.4 1.3.4.9 0 1.7-.5 2.2-1.3.7-1.3.3-2.9-.9-3.7l-61.6-38v-26.9H26c1.4 0 2.5-1.2 2.5-2.7V161h6.6c.3 0 .6-.1.8-.2 6.3-.5 11.3-6 11.3-12.8-.2-7.1-5.6-12.9-12.3-12.9zM23.2 277.5h-172.4V161H23.2v116.5zm11.7-122c-.3 0-.5 0-.8.1H-160c-.3-.1-.5-.1-.8-.1-3.9 0-7-3.3-7-7.5s3.2-7.5 7-7.5H34.9c3.9 0 7 3.4 7 7.5s-3.1 7.5-7 7.5z"/><radialGradient id="SVGID_2_" cx="-61.747" cy="222.6" r="52.276" gradientTransform="matrix(1 0 0 1.6 0 -133.56)" gradientUnits="userSpaceOnUse"><stop offset="0" stop-color="#eac2d2"/><stop offset="1" stop-color="#1a2662"/><stop offset="1" stop-color="#1a2662"/></radialGradient><path class="st1" d="M-110.8 262.1c7.4 0 13.4-6 13.4-13.4 0-3.2-1.2-6.2-3.1-8.5l18.1-21.2c2 1.2 4.3 1.9 6.8 1.9 3.2 0 6.1-1.1 8.4-3l18 15.7c-1.2 2-2 4.4-2 6.9 0 7.4 6 13.4 13.4 13.4s13.4-6 13.4-13.4c0-4.1-1.9-7.8-4.9-10.3l12.1-21.2c1.4.5 2.9.8 4.5.8 7.4 0 13.4-6 13.4-13.4s-6-13.4-13.4-13.4-13.4 6-13.4 13.4c0 4.1 1.9 7.8 4.9 10.3L-33.3 228c-1.4-.5-2.9-.8-4.5-.8-3.2 0-6.1 1.1-8.4 3l-18-15.7c1.2-2 2-4.4 2-6.9 0-7.4-6-13.4-13.4-13.4s-13.4 6-13.4 13.4c0 3.2 1.2 6.2 3.1 8.5l-18.1 21.2c-2-1.2-4.3-1.9-6.8-1.9-7.4 0-13.4 6-13.4 13.4s6 13.3 13.4 13.3zm98.1-74.3c4.8 0 8.7 3.9 8.7 8.7 0 4.8-3.9 8.7-8.7 8.7s-8.7-3.9-8.7-8.7c0-4.8 3.9-8.7 8.7-8.7zm-16.4 52.7c0 4.8-3.9 8.7-8.7 8.7s-8.7-3.9-8.7-8.7c0-4.8 3.9-8.7 8.7-8.7s8.7 3.9 8.7 8.7zm-46.5-41.7c4.8 0 8.7 3.9 8.7 8.7 0 4.8-3.9 8.7-8.7 8.7-4.8 0-8.7-3.9-8.7-8.7 0-4.8 3.9-8.7 8.7-8.7zm-35.2 41.2c4.8 0 8.7 3.9 8.7 8.7s-3.9 8.7-8.7 8.7c-4.8 0-8.7-3.9-8.7-8.7s3.8-8.7 8.7-8.7z"/></g></g><radialGradient id="Rectangle-55_1_" cx="-344.981" cy="599.756" r=".943" gradientTransform="matrix(253 0 0 -367 87192 220568)" gradientUnits="userSpaceOnUse"><stop offset="0" stop-color="#eac2d2"/><stop offset="1" stop-color="#1a2662"/><stop offset="1" stop-color="#1a2662"/></radialGradient><path id="Rectangle-55" class="st2" d="M-173 117H80v367h-253z"/></g></g></g></g></g></svg>