<svg id="Layer_1" xmlns="http://www.w3.org/2000/svg" viewBox="-171 117 257 367"><style>.st0{fill:url(#Shape_2_)}.st1{fill:url(#Shape_3_)}.st2{display:none;fill:url(#Rectangle-55-Copy_1_)}</style><title>noun_30647_cc</title><g id="Designs"><g id="Desktop-HD-Copy-19" transform="translate(-145 -3391)"><g id="Group-12" transform="translate(137 3345)"><g id="Group-16" transform="translate(8 46)"><g id="noun_30647_cc"><g id="Group" transform="translate(0 115)"><radialGradient id="Shape_2_" cx="-41.803" cy="204.61" r="101.143" gradientTransform="matrix(1 0 0 2.4 0 -286.454)" gradientUnits="userSpaceOnUse"><stop offset="0" stop-color="#eac2d2"/><stop offset="1" stop-color="#1a2662"/><stop offset="1" stop-color="#1a2662"/></radialGradient><path id="Shape" class="st0" d="M41 291.8h-161v-94.6h-35.2l112.8-79.8 24.5 16.9v-16.1h31.7v38.1l57.8 39.8-30.6 3.3v92.4zm-153.5-7.5h146v-91.6l17.2-1.9-44.4-30.6v-34.5h-16.7v22.9l-32-22.1-89.3 63.2h19.2v94.6z"/><radialGradient id="Shape_3_" cx="-40.063" cy="224.795" r="47.555" gradientTransform="matrix(1 0 0 2.4 0 -314.714)" gradientUnits="userSpaceOnUse"><stop offset="0" stop-color="#eac2d2"/><stop offset="1" stop-color="#1a2662"/><stop offset="1" stop-color="#1a2662"/></radialGradient><path id="Shape_1_" class="st1" d="M.8 186.7c6.9 5.3 10.5 13.3 10 22.5-1.1 15.5-22.3 35.2-42.2 52.5-2.4 2.1-6.5 5.6-7.9 6.9-1.7-1.5-6.5-5.8-9.4-8.3-19.9-16.8-41.2-36.1-42.3-51.1-.5-9.3 3.1-17.3 10.1-22.6 7.4-5.6 17.9-7.4 26.8-4.4 6 2 10.9 5.7 14 10.3 3.2-4.6 8.1-8.3 14.1-10.3 8.8-2.8 19.4-1.1 26.8 4.5zm2.6 22.1c.4-8.5-3.6-13.4-7.1-16.1-5.5-4.2-13.3-5.5-19.9-3.3C-30.4 191.6-40 204-40 204s-9.6-12.3-16.4-14.6c-6.6-2.2-14.4-.9-19.9 3.3-3.5 2.6-7.5 7.6-7.1 16.2.9 13.1 27.1 35.2 39.7 45.8 1.7 1.4 3.3 2.8 4.7 4 .9-.8 1.8-1.6 2.9-2.5 12.4-11 38.5-33.7 39.5-47.4z"/></g><radialGradient id="Rectangle-55-Copy_1_" cx="-340.988" cy="599.756" r=".943" gradientTransform="matrix(253 0 0 -607.2 86188 364629.313)" gradientUnits="userSpaceOnUse"><stop offset="0" stop-color="#eac2d2"/><stop offset="1" stop-color="#1a2662"/><stop offset="1" stop-color="#1a2662"/></radialGradient><path id="Rectangle-55-Copy" class="st2" d="M-167 117H86v367h-253z"/></g></g></g></g></g></svg>